<svg width="130" height="27" viewBox="0 0 130 27" fill="none" xmlns="http://www.w3.org/2000/svg">
<path d="M10.494 2.636H13.101L23.034 26H19.8L17.424 20.258H5.742L3.333 26H0.198L10.494 2.636ZM11.748 6.2H11.682L6.831 17.684H16.368L11.748 6.2ZM25.9084 1.052H28.4824V26H25.9084V1.052ZM33.8683 10.556H36.4423V26H33.8683V10.556ZM33.2743 4.517C33.2743 4.011 33.4503 3.571 33.8023 3.197C34.1763 2.823 34.6273 2.636 35.1553 2.636C35.6833 2.636 36.1233 2.823 36.4753 3.197C36.8493 3.571 37.0363 4.011 37.0363 4.517C37.0363 5.067 36.8603 5.518 36.5083 5.87C36.1563 6.222 35.7053 6.398 35.1553 6.398C34.6053 6.398 34.1543 6.222 33.8023 5.87C33.4503 5.518 33.2743 5.067 33.2743 4.517Z" fill="#F79916"/>
<path d="M52.884 26.594C51.102 26.594 49.463 26.286 47.967 25.67C46.493 25.054 45.206 24.207 44.106 23.129C43.028 22.029 42.181 20.731 41.565 19.235C40.971 17.717 40.674 16.078 40.674 14.318C40.674 12.558 40.971 10.93 41.565 9.434C42.181 7.916 43.028 6.618 44.106 5.54C45.206 4.44 46.493 3.582 47.967 2.966C49.463 2.35 51.102 2.042 52.884 2.042C54.666 2.042 56.294 2.35 57.768 2.966C59.264 3.582 60.551 4.44 61.629 5.54C62.729 6.618 63.576 7.916 64.17 9.434C64.786 10.93 65.094 12.558 65.094 14.318C65.094 16.078 64.786 17.717 64.17 19.235C63.576 20.731 62.729 22.029 61.629 23.129C60.551 24.207 59.264 25.054 57.768 25.67C56.294 26.286 54.666 26.594 52.884 26.594ZM52.884 24.02C54.248 24.02 55.491 23.767 56.613 23.261C57.757 22.755 58.736 22.062 59.55 21.182C60.364 20.302 60.991 19.279 61.431 18.113C61.893 16.925 62.124 15.66 62.124 14.318C62.124 12.976 61.893 11.722 61.431 10.556C60.991 9.368 60.364 8.334 59.55 7.454C58.736 6.574 57.757 5.881 56.613 5.375C55.491 4.869 54.248 4.616 52.884 4.616C51.52 4.616 50.266 4.869 49.122 5.375C48 5.881 47.032 6.574 46.218 7.454C45.404 8.334 44.766 9.368 44.304 10.556C43.864 11.722 43.644 12.976 43.644 14.318C43.644 15.66 43.864 16.925 44.304 18.113C44.766 19.279 45.404 20.302 46.218 21.182C47.032 22.062 48 22.755 49.122 23.261C50.266 23.767 51.52 24.02 52.884 24.02ZM70.4065 12.734H67.0405V10.556H70.4065V7.091C70.4065 6.145 70.4945 5.287 70.6705 4.517C70.8465 3.725 71.1435 3.043 71.5615 2.471C72.0015 1.899 72.5735 1.459 73.2775 1.151C73.9815 0.821 74.8505 0.656 75.8845 0.656C76.2145 0.656 76.5665 0.688999 76.9405 0.754999C77.3145 0.820999 77.6225 0.919999 77.8645 1.052L77.5015 3.362C76.8855 3.142 76.3025 3.032 75.7525 3.032C75.0925 3.032 74.5755 3.153 74.2015 3.395C73.8275 3.615 73.5415 3.934 73.3435 4.352C73.1675 4.748 73.0575 5.232 73.0135 5.804C72.9915 6.376 72.9805 6.992 72.9805 7.652V10.556H76.7425V12.734H72.9805V26H70.4065V12.734ZM80.2356 12.734H76.8696V10.556H80.2356V7.091C80.2356 6.145 80.3236 5.287 80.4996 4.517C80.6756 3.725 80.9726 3.043 81.3906 2.471C81.8306 1.899 82.4026 1.459 83.1066 1.151C83.8106 0.821 84.6796 0.656 85.7136 0.656C86.0436 0.656 86.3956 0.688999 86.7696 0.754999C87.1436 0.820999 87.4516 0.919999 87.6936 1.052L87.3306 3.362C86.7146 3.142 86.1316 3.032 85.5816 3.032C84.9216 3.032 84.4046 3.153 84.0306 3.395C83.6566 3.615 83.3706 3.934 83.1726 4.352C82.9966 4.748 82.8866 5.232 82.8426 5.804C82.8206 6.376 82.8096 6.992 82.8096 7.652V10.556H86.5716V12.734H82.8096V26H80.2356V12.734ZM103.119 23.195C102.195 24.383 101.183 25.219 100.083 25.703C98.9828 26.165 97.7068 26.396 96.2548 26.396C95.0448 26.396 93.9558 26.187 92.9878 25.769C92.0198 25.329 91.1948 24.746 90.5128 24.02C89.8528 23.294 89.3358 22.436 88.9618 21.446C88.6098 20.456 88.4338 19.4 88.4338 18.278C88.4338 17.09 88.6318 16.001 89.0278 15.011C89.4238 13.999 89.9738 13.141 90.6778 12.437C91.3818 11.711 92.2178 11.15 93.1858 10.754C94.1538 10.358 95.2098 10.16 96.3538 10.16C97.4318 10.16 98.4218 10.347 99.3238 10.721C100.226 11.073 100.996 11.601 101.634 12.305C102.294 12.987 102.8 13.834 103.152 14.846C103.504 15.836 103.68 16.969 103.68 18.245V19.07H91.2058C91.2498 19.73 91.4038 20.368 91.6678 20.984C91.9538 21.578 92.3168 22.106 92.7568 22.568C93.1968 23.008 93.7138 23.36 94.3078 23.624C94.9018 23.888 95.5508 24.02 96.2548 24.02C97.3768 24.02 98.3228 23.822 99.0928 23.426C99.8628 23.03 100.556 22.447 101.172 21.677L103.119 23.195ZM100.908 16.892C100.864 15.572 100.435 14.516 99.6208 13.724C98.8068 12.932 97.6848 12.536 96.2548 12.536C94.8248 12.536 93.6698 12.932 92.7898 13.724C91.9098 14.516 91.3818 15.572 91.2058 16.892H100.908ZM107.662 14.219C107.662 13.515 107.64 12.855 107.596 12.239C107.552 11.623 107.53 11.062 107.53 10.556H109.972C109.972 10.974 109.983 11.392 110.005 11.81C110.027 12.228 110.038 12.657 110.038 13.097H110.104C110.28 12.723 110.522 12.36 110.83 12.008C111.16 11.656 111.545 11.348 111.985 11.084C112.425 10.798 112.92 10.578 113.47 10.424C114.02 10.248 114.614 10.16 115.252 10.16C115.428 10.16 115.604 10.171 115.78 10.193C115.956 10.215 116.132 10.259 116.308 10.325L116.143 12.932C115.703 12.8 115.241 12.734 114.757 12.734C113.173 12.734 112.018 13.251 111.292 14.285C110.588 15.297 110.236 16.694 110.236 18.476V26H107.662V14.219ZM119.593 21.941C120.099 22.579 120.649 23.085 121.243 23.459C121.859 23.833 122.629 24.02 123.553 24.02C123.949 24.02 124.345 23.976 124.741 23.888C125.159 23.8 125.533 23.657 125.863 23.459C126.193 23.261 126.457 23.019 126.655 22.733C126.853 22.425 126.952 22.062 126.952 21.644C126.952 21.226 126.853 20.885 126.655 20.621C126.479 20.357 126.237 20.137 125.929 19.961C125.621 19.763 125.269 19.609 124.873 19.499C124.477 19.389 124.07 19.29 123.652 19.202C122.926 19.048 122.233 18.872 121.573 18.674C120.913 18.476 120.33 18.223 119.824 17.915C119.34 17.585 118.944 17.167 118.636 16.661C118.35 16.155 118.207 15.506 118.207 14.714C118.207 13.966 118.372 13.306 118.702 12.734C119.032 12.162 119.472 11.689 120.022 11.315C120.572 10.941 121.188 10.655 121.87 10.457C122.552 10.259 123.256 10.16 123.982 10.16C125.082 10.16 126.094 10.38 127.018 10.82C127.964 11.26 128.701 11.975 129.229 12.965L127.084 14.384C126.754 13.834 126.314 13.394 125.764 13.064C125.236 12.712 124.587 12.536 123.817 12.536C123.465 12.536 123.102 12.58 122.728 12.668C122.376 12.756 122.057 12.888 121.771 13.064C121.485 13.24 121.243 13.471 121.045 13.757C120.869 14.021 120.781 14.329 120.781 14.681C120.781 15.011 120.88 15.297 121.078 15.539C121.298 15.759 121.584 15.957 121.936 16.133C122.31 16.309 122.728 16.463 123.19 16.595C123.674 16.727 124.169 16.837 124.675 16.925C125.357 17.057 126.006 17.233 126.622 17.453C127.238 17.651 127.777 17.926 128.239 18.278C128.701 18.63 129.064 19.07 129.328 19.598C129.592 20.126 129.724 20.775 129.724 21.545C129.724 22.425 129.548 23.173 129.196 23.789C128.844 24.405 128.371 24.911 127.777 25.307C127.205 25.681 126.545 25.956 125.797 26.132C125.071 26.308 124.323 26.396 123.553 26.396C122.233 26.396 121.089 26.198 120.121 25.802C119.175 25.384 118.317 24.625 117.547 23.525L119.593 21.941Z" fill="#E52E20"/>
</svg>
